G04*
G04 #@! TF.GenerationSoftware,Altium Limited,Altium Designer,24.1.2 (44)*
G04*
G04 Layer_Physical_Order=2*
G04 Layer_Color=16711680*
%FSLAX25Y25*%
%MOIN*%
G70*
G04*
G04 #@! TF.SameCoordinates,C47F8A19-97F9-4067-9C4D-816D2AB984C8*
G04*
G04*
G04 #@! TF.FilePolarity,Positive*
G04*
G01*
G75*
%ADD13C,0.01000*%
%ADD20C,0.01394*%
%ADD21C,0.07874*%
%ADD22C,0.05000*%
G36*
X84612Y3971D02*
X3971D01*
Y74769D01*
X84612D01*
Y3971D01*
D02*
G37*
%LPC*%
G36*
X49700Y43070D02*
X48726D01*
X47784Y42818D01*
X46941Y42331D01*
X46252Y41642D01*
X45765Y40798D01*
X45513Y39857D01*
Y38883D01*
X45765Y37942D01*
X46252Y37098D01*
X46941Y36409D01*
X47357Y36169D01*
Y14612D01*
X46216Y13953D01*
X45259Y12997D01*
X44646Y11934D01*
X44410Y11881D01*
X44330D01*
X44094Y11934D01*
X43481Y12997D01*
X42524Y13953D01*
X41353Y14629D01*
X40046Y14979D01*
X38694D01*
X37387Y14629D01*
X36216Y13953D01*
X35259Y12997D01*
X34583Y11825D01*
X34517Y11577D01*
X34017D01*
X33971Y11748D01*
X33321Y12874D01*
X32401Y13793D01*
X31276Y14443D01*
X30020Y14780D01*
X29870D01*
Y9843D01*
Y4905D01*
X30020D01*
X31276Y5242D01*
X32401Y5892D01*
X33321Y6811D01*
X33971Y7937D01*
X34017Y8108D01*
X34517D01*
X34583Y7860D01*
X35259Y6688D01*
X36216Y5732D01*
X37387Y5056D01*
X38694Y4705D01*
X40046D01*
X41353Y5056D01*
X42524Y5732D01*
X43481Y6688D01*
X44094Y7751D01*
X44330Y7804D01*
X44410D01*
X44646Y7751D01*
X45259Y6688D01*
X46216Y5732D01*
X47387Y5056D01*
X48694Y4705D01*
X50046D01*
X51353Y5056D01*
X52524Y5732D01*
X53481Y6688D01*
X54157Y7860D01*
X54507Y9166D01*
Y10519D01*
X54157Y11825D01*
X53481Y12997D01*
X52524Y13953D01*
X51353Y14629D01*
X51225Y14664D01*
Y36260D01*
X51485Y36409D01*
X52173Y37098D01*
X52661Y37942D01*
X52913Y38883D01*
Y39857D01*
X52661Y40798D01*
X52173Y41642D01*
X51485Y42331D01*
X50641Y42818D01*
X49700Y43070D01*
D02*
G37*
G36*
X28870Y14780D02*
X28720D01*
X27465Y14443D01*
X26339Y13793D01*
X25420Y12874D01*
X24769Y11748D01*
X24433Y10492D01*
Y10343D01*
X28870D01*
Y14780D01*
D02*
G37*
G36*
Y9342D02*
X24433D01*
Y9193D01*
X24769Y7937D01*
X25420Y6811D01*
X26339Y5892D01*
X27465Y5242D01*
X28720Y4905D01*
X28870D01*
Y9342D01*
D02*
G37*
%LPD*%
D13*
X49213Y39370D02*
X49291Y39291D01*
Y9921D02*
X49370Y9843D01*
D20*
X49291Y9921D02*
Y39291D01*
D21*
X39370Y9843D02*
D03*
X29370D02*
D03*
X49370D02*
D03*
D22*
X9843Y14443D02*
D03*
X59055Y12997D02*
D03*
Y59055D02*
D03*
X9843D02*
D03*
X49213Y39370D02*
D03*
M02*
