G04*
G04 #@! TF.GenerationSoftware,Altium Limited,Altium Designer,24.1.2 (44)*
G04*
G04 Layer_Color=16711935*
%FSLAX44Y44*%
%MOMM*%
G71*
G04*
G04 #@! TF.SameCoordinates,A2382F87-94EC-413F-B423-03D83E9679FE*
G04*
G04*
G04 #@! TF.FilePolarity,Positive*
G04*
G01*
G75*
%ADD10C,0.2000*%
%ADD11C,0.1270*%
%ADD23C,0.1000*%
D10*
X69399Y107150D02*
G03*
X69399Y107150I-1000J0D01*
G01*
X72060Y2140D02*
Y12300D01*
X127940Y2140D02*
Y12300D01*
X122860Y-84220D02*
X127940D01*
X97460D02*
X102540D01*
X72060D02*
X77140D01*
X127940D02*
Y-23260D01*
X122860Y-84220D02*
Y-23260D01*
X102540Y-84220D02*
Y-23260D01*
X97460Y-84220D02*
Y-23260D01*
X77140Y-84220D02*
Y-23260D01*
X72060Y-84220D02*
Y-23260D01*
X127940D02*
X138100D01*
X102540D02*
X122860D01*
X77140D02*
X97460D01*
X61900D02*
X72060D01*
X138100D02*
Y-2940D01*
X61900Y-23260D02*
Y-2940D01*
X133020D02*
X138100D01*
X61900D02*
X66980D01*
X133020D02*
Y2140D01*
X66980Y-2940D02*
Y2140D01*
X127940D02*
X133020D01*
X66980D02*
X72060D01*
X60300Y37700D02*
X139700D01*
X60300Y12300D02*
Y37700D01*
X139700Y12300D02*
Y37700D01*
X60300Y12300D02*
X139700D01*
X95000Y25000D02*
X105000D01*
X100000Y20000D02*
Y30000D01*
D11*
X68699Y169700D02*
X117999D01*
X68699Y130300D02*
X117999D01*
Y169700D01*
X68699Y130300D02*
Y169700D01*
D23*
X72350Y81750D02*
X94350D01*
X72350Y68250D02*
X94350D01*
X72350D02*
Y81750D01*
X94350Y68250D02*
Y81750D01*
M02*
