G04*
G04 #@! TF.GenerationSoftware,Altium Limited,Altium Designer,24.1.2 (44)*
G04*
G04 Layer_Physical_Order=1*
G04 Layer_Color=255*
%FSLAX25Y25*%
%MOIN*%
G70*
G04*
G04 #@! TF.SameCoordinates,C47F8A19-97F9-4067-9C4D-816D2AB984C8*
G04*
G04*
G04 #@! TF.FilePolarity,Positive*
G04*
G01*
G75*
G04:AMPARAMS|DCode=14|XSize=65.35mil|YSize=23.23mil|CornerRadius=2.9mil|HoleSize=0mil|Usage=FLASHONLY|Rotation=90.000|XOffset=0mil|YOffset=0mil|HoleType=Round|Shape=RoundedRectangle|*
%AMROUNDEDRECTD14*
21,1,0.06535,0.01742,0,0,90.0*
21,1,0.05955,0.02323,0,0,90.0*
1,1,0.00581,0.00871,0.02977*
1,1,0.00581,0.00871,-0.02977*
1,1,0.00581,-0.00871,-0.02977*
1,1,0.00581,-0.00871,0.02977*
%
%ADD14ROUNDEDRECTD14*%
%ADD15R,0.04528X0.05315*%
%ADD20C,0.01394*%
%ADD21C,0.07874*%
%ADD22C,0.05000*%
G36*
X84612Y3971D02*
X3971D01*
Y74769D01*
X84612D01*
Y3971D01*
D02*
G37*
%LPC*%
G36*
X45123Y73887D02*
X43380D01*
X42799Y73771D01*
X42306Y73442D01*
X42023Y73018D01*
X41752Y72980D01*
X41480Y73018D01*
X41197Y73442D01*
X40704Y73771D01*
X40123Y73887D01*
X38381D01*
X37799Y73771D01*
X37306Y73442D01*
X37023Y73018D01*
X36752Y72980D01*
X36481Y73018D01*
X36197Y73442D01*
X35704Y73771D01*
X35123Y73887D01*
X33380D01*
X32799Y73771D01*
X32306Y73442D01*
X32023Y73018D01*
X31752Y72980D01*
X31481Y73018D01*
X31197Y73442D01*
X30704Y73771D01*
X30123Y73887D01*
X28381D01*
X27799Y73771D01*
X27306Y73442D01*
X26977Y72949D01*
X26861Y72367D01*
Y66412D01*
X26977Y65831D01*
X27306Y65338D01*
X27799Y65008D01*
X28381Y64893D01*
X30123D01*
X30704Y65008D01*
X31197Y65338D01*
X31481Y65762D01*
X31752Y65800D01*
X32023Y65762D01*
X32306Y65338D01*
X32799Y65008D01*
X33380Y64893D01*
X35123D01*
X35704Y65008D01*
X36197Y65338D01*
X36481Y65762D01*
X36752Y65800D01*
X37023Y65762D01*
X37306Y65338D01*
X37799Y65008D01*
X38381Y64893D01*
X40123D01*
X40704Y65008D01*
X41197Y65338D01*
X41480Y65762D01*
X41752Y65800D01*
X42023Y65762D01*
X42306Y65338D01*
X42799Y65008D01*
X43380Y64893D01*
X45123D01*
X45704Y65008D01*
X46197Y65338D01*
X46527Y65831D01*
X46642Y66412D01*
Y72367D01*
X46527Y72949D01*
X46197Y73442D01*
X45704Y73771D01*
X45123Y73887D01*
D02*
G37*
G36*
Y53217D02*
X43380D01*
X42799Y53102D01*
X42306Y52772D01*
X42023Y52348D01*
X41752Y52311D01*
X41480Y52348D01*
X41197Y52772D01*
X40704Y53102D01*
X40123Y53217D01*
X38381D01*
X37799Y53102D01*
X37306Y52772D01*
X37023Y52348D01*
X36752Y52311D01*
X36481Y52348D01*
X36197Y52772D01*
X35704Y53102D01*
X35123Y53217D01*
X33380D01*
X32799Y53102D01*
X32306Y52772D01*
X31977Y52279D01*
X31905Y51917D01*
X31395D01*
X31338Y52201D01*
X31053Y52628D01*
X30626Y52913D01*
X30123Y53013D01*
X29752D01*
Y48720D01*
Y44427D01*
X30123D01*
X30626Y44528D01*
X31053Y44813D01*
X31338Y45240D01*
X31395Y45524D01*
X31905D01*
X31977Y45162D01*
X32306Y44669D01*
X32318Y44661D01*
Y39370D01*
X32465Y38630D01*
X32884Y38002D01*
X34326Y36561D01*
Y33739D01*
X33972Y33385D01*
X32796Y33385D01*
X32379Y33185D01*
X29870D01*
Y29528D01*
Y25870D01*
X32379D01*
X32796Y25670D01*
X33051Y25670D01*
X34326D01*
Y21813D01*
X34473Y21073D01*
X34892Y20446D01*
X37436Y17902D01*
Y14642D01*
X37387Y14629D01*
X36216Y13953D01*
X35259Y12997D01*
X34583Y11825D01*
X34517Y11577D01*
X34017D01*
X33971Y11748D01*
X33321Y12874D01*
X32401Y13793D01*
X31276Y14443D01*
X30020Y14780D01*
X29870D01*
Y9843D01*
Y4905D01*
X30020D01*
X31276Y5242D01*
X32401Y5892D01*
X33321Y6811D01*
X33971Y7937D01*
X34017Y8108D01*
X34517D01*
X34583Y7860D01*
X35259Y6688D01*
X36216Y5732D01*
X37387Y5056D01*
X38694Y4705D01*
X40046D01*
X41353Y5056D01*
X42524Y5732D01*
X43481Y6688D01*
X44094Y7751D01*
X44330Y7804D01*
X44410D01*
X44646Y7751D01*
X45259Y6688D01*
X46216Y5732D01*
X47387Y5056D01*
X48694Y4705D01*
X50046D01*
X51353Y5056D01*
X52524Y5732D01*
X53481Y6688D01*
X54157Y7860D01*
X54507Y9166D01*
Y10519D01*
X54157Y11825D01*
X53481Y12997D01*
X52524Y13953D01*
X51353Y14629D01*
X50046Y14979D01*
X48694D01*
X47387Y14629D01*
X46216Y13953D01*
X45259Y12997D01*
X44646Y11934D01*
X44410Y11881D01*
X44330D01*
X44094Y11934D01*
X43481Y12997D01*
X42524Y13953D01*
X41353Y14629D01*
X41304Y14642D01*
Y18703D01*
X41157Y19443D01*
X40738Y20071D01*
X38194Y22614D01*
Y25670D01*
X39724D01*
Y33385D01*
X38194D01*
Y37362D01*
X38085Y37911D01*
X38545Y38158D01*
X38701Y38002D01*
X39328Y37583D01*
X40068Y37436D01*
X46057D01*
X46252Y37098D01*
X46941Y36409D01*
X47784Y35922D01*
X48726Y35670D01*
X49700D01*
X50641Y35922D01*
X51485Y36409D01*
X52173Y37098D01*
X52661Y37942D01*
X52913Y38883D01*
Y39857D01*
X52661Y40798D01*
X52173Y41642D01*
X51485Y42331D01*
X50641Y42818D01*
X49700Y43070D01*
X48726D01*
X47784Y42818D01*
X46941Y42331D01*
X46252Y41642D01*
X46057Y41304D01*
X41186D01*
Y44661D01*
X41197Y44669D01*
X41480Y45093D01*
X41752Y45130D01*
X42023Y45093D01*
X42306Y44669D01*
X42799Y44339D01*
X43380Y44224D01*
X45123D01*
X45704Y44339D01*
X46197Y44669D01*
X46527Y45162D01*
X46642Y45743D01*
Y51698D01*
X46527Y52279D01*
X46197Y52772D01*
X45704Y53102D01*
X45123Y53217D01*
D02*
G37*
G36*
X28752Y53013D02*
X28381D01*
X27877Y52913D01*
X27450Y52628D01*
X27165Y52201D01*
X27065Y51698D01*
Y49220D01*
X28752D01*
Y53013D01*
D02*
G37*
G36*
Y48221D02*
X27065D01*
Y45743D01*
X27165Y45240D01*
X27450Y44813D01*
X27877Y44528D01*
X28381Y44427D01*
X28752D01*
Y48221D01*
D02*
G37*
G36*
X28870Y33185D02*
X26106D01*
Y30028D01*
X28870D01*
Y33185D01*
D02*
G37*
G36*
Y29028D02*
X26106D01*
Y25870D01*
X28870D01*
Y29028D01*
D02*
G37*
G36*
Y14780D02*
X28720D01*
X27465Y14443D01*
X26339Y13793D01*
X25420Y12874D01*
X24769Y11748D01*
X24433Y10492D01*
Y10343D01*
X28870D01*
Y14780D01*
D02*
G37*
G36*
Y9342D02*
X24433D01*
Y9193D01*
X24769Y7937D01*
X25420Y6811D01*
X26339Y5892D01*
X27465Y5242D01*
X28720Y4905D01*
X28870D01*
Y9342D01*
D02*
G37*
%LPD*%
D14*
X29252Y69390D02*
D03*
X34252D02*
D03*
X39252D02*
D03*
X44252D02*
D03*
Y48720D02*
D03*
X39252D02*
D03*
X34252D02*
D03*
X29252D02*
D03*
D15*
X29370Y29528D02*
D03*
X36260D02*
D03*
D20*
X34252Y39370D02*
Y48720D01*
Y39370D02*
X36260Y37362D01*
Y29528D02*
Y37362D01*
X39252Y40187D02*
Y48720D01*
Y40187D02*
X40068Y39370D01*
X49213D01*
X36260Y21813D02*
Y29528D01*
X39370Y9843D02*
Y18703D01*
X36260Y21813D02*
X39370Y18703D01*
D21*
Y9843D02*
D03*
X29370D02*
D03*
X49370D02*
D03*
D22*
X9843Y14443D02*
D03*
X59055Y12997D02*
D03*
Y59055D02*
D03*
X9843D02*
D03*
X49213Y39370D02*
D03*
M02*
