G04*
G04 #@! TF.GenerationSoftware,Altium Limited,Altium Designer,24.1.2 (44)*
G04*
G04 Layer_Color=65535*
%FSLAX25Y25*%
%MOIN*%
G70*
G04*
G04 #@! TF.SameCoordinates,C47F8A19-97F9-4067-9C4D-816D2AB984C8*
G04*
G04*
G04 #@! TF.FilePolarity,Positive*
G04*
G01*
G75*
%ADD10C,0.00787*%
%ADD11C,0.00500*%
%ADD12C,0.00591*%
%ADD13C,0.01000*%
G36*
X23937Y14961D02*
Y11417D01*
X27480Y14961D01*
X23937D01*
D02*
G37*
D10*
X27323Y42185D02*
G03*
X27323Y42185I-394J0D01*
G01*
X38370Y843D02*
Y4843D01*
X30370Y843D02*
Y4843D01*
X40370Y843D02*
Y4843D01*
X26370Y843D02*
X52370D01*
X48370D02*
Y4843D01*
X28370Y843D02*
Y4843D01*
X50370Y843D02*
Y4843D01*
X24370Y-9157D02*
Y-1158D01*
X26370D01*
Y843D01*
X28370Y-11157D02*
Y-9157D01*
Y-11157D02*
X30370D01*
Y-9157D01*
X38370Y-11157D02*
X40370D01*
X38370D02*
Y-9157D01*
X24370D02*
X54370D01*
X40370Y-11157D02*
Y-9157D01*
X48370Y-11157D02*
Y-9157D01*
X54370D02*
Y-1158D01*
X48370Y-11157D02*
X50370D01*
Y-9157D01*
X52370Y-1158D02*
X54370D01*
X52370D02*
Y843D01*
X23740Y14842D02*
X55000D01*
X23740Y4843D02*
Y14842D01*
X55000Y4843D02*
Y14842D01*
X23740Y4843D02*
X55000D01*
D11*
X46673Y51299D02*
Y66811D01*
X26830Y51299D02*
Y66811D01*
D12*
X32815Y25984D02*
Y33071D01*
X26122Y32283D02*
Y33071D01*
X39508D01*
Y32283D02*
Y33071D01*
X26122Y25984D02*
Y26772D01*
Y25984D02*
X39508D01*
Y26772D01*
D13*
X50213Y23027D02*
X50687Y23502D01*
X51637D01*
X52112Y23027D01*
Y22553D01*
X51637Y22078D01*
X51162D01*
X51637D01*
X52112Y21603D01*
Y21128D01*
X51637Y20653D01*
X50687D01*
X50213Y21128D01*
X53062Y20653D02*
Y21128D01*
X53537D01*
Y20653D01*
X53062D01*
X57336Y23027D02*
X56861Y23502D01*
X55911D01*
X55437Y23027D01*
Y22553D01*
X55911Y22078D01*
X56861D01*
X57336Y21603D01*
Y21128D01*
X56861Y20653D01*
X55911D01*
X55437Y21128D01*
X58286Y22553D02*
Y21128D01*
X58761Y20653D01*
X60186D01*
Y22553D01*
X61136Y19703D02*
Y22553D01*
X62560D01*
X63035Y22078D01*
Y21128D01*
X62560Y20653D01*
X61136D01*
X63985Y19703D02*
Y22553D01*
X65410D01*
X65885Y22078D01*
Y21128D01*
X65410Y20653D01*
X63985D01*
X66834D02*
X67784D01*
X67309D01*
Y23502D01*
X66834D01*
X69209Y22553D02*
Y21128D01*
X69684Y20653D01*
X71109D01*
Y20178D01*
X70634Y19703D01*
X70159D01*
X71109Y20653D02*
Y22553D01*
X52112Y25606D02*
X50213D01*
X52112Y27506D01*
Y27981D01*
X51637Y28456D01*
X50687D01*
X50213Y27981D01*
X53062Y25606D02*
Y26081D01*
X53537D01*
Y25606D01*
X53062D01*
X55437Y28456D02*
Y26556D01*
X56387Y25606D01*
X57336Y26556D01*
Y28456D01*
X59711D02*
X58761D01*
X58286Y27981D01*
Y26081D01*
X58761Y25606D01*
X59711D01*
X60186Y26081D01*
Y27981D01*
X59711Y28456D01*
X61136D02*
Y26081D01*
X61611Y25606D01*
X62560D01*
X63035Y26081D01*
Y28456D01*
X63985D02*
X65885D01*
X64935D01*
Y25606D01*
X50213Y30528D02*
X51162D01*
X50687D01*
Y33377D01*
X50213Y32902D01*
X52587Y30528D02*
Y31003D01*
X53062D01*
Y30528D01*
X52587D01*
X56861Y32902D02*
X56387Y33377D01*
X55437D01*
X54962Y32902D01*
Y31003D01*
X55437Y30528D01*
X56387D01*
X56861Y31003D01*
Y31952D01*
X55911D01*
X57811Y30528D02*
Y33377D01*
X59711Y30528D01*
Y33377D01*
X60661D02*
Y30528D01*
X62085D01*
X62560Y31003D01*
Y32902D01*
X62085Y33377D01*
X60661D01*
X16686Y55056D02*
X21684D01*
X22684Y56056D01*
Y58055D01*
X21684Y59055D01*
X16686D01*
X22684Y61054D02*
Y63054D01*
Y62054D01*
X16686D01*
X17686Y61054D01*
X22527Y25529D02*
X16529D01*
Y28528D01*
X17528Y29528D01*
X19527D01*
X20527Y28528D01*
Y25529D01*
Y27528D02*
X22527Y29528D01*
Y31527D02*
Y33526D01*
Y32527D01*
X16529D01*
X17528Y31527D01*
X16686Y9843D02*
Y7843D01*
Y8843D01*
X21684D01*
X22684Y7843D01*
Y6843D01*
X21684Y5844D01*
X22684Y11842D02*
Y13841D01*
Y12842D01*
X16686D01*
X17686Y11842D01*
M02*
