G04*
G04 #@! TF.GenerationSoftware,Altium Limited,Altium Designer,24.1.2 (44)*
G04*
G04 Layer_Color=16711935*
%FSLAX25Y25*%
%MOIN*%
G70*
G04*
G04 #@! TF.SameCoordinates,C47F8A19-97F9-4067-9C4D-816D2AB984C8*
G04*
G04*
G04 #@! TF.FilePolarity,Positive*
G04*
G01*
G75*
%ADD10C,0.00787*%
%ADD11C,0.00500*%
%ADD23C,0.00394*%
D10*
X27323Y42185D02*
G03*
X27323Y42185I-394J0D01*
G01*
X28370Y843D02*
Y4843D01*
X50370Y843D02*
Y4843D01*
X48370Y-33158D02*
X50370D01*
X38370D02*
X40370D01*
X28370D02*
X30370D01*
X50370D02*
Y-9157D01*
X48370Y-33158D02*
Y-9157D01*
X40370Y-33158D02*
Y-9157D01*
X38370Y-33158D02*
Y-9157D01*
X30370Y-33158D02*
Y-9157D01*
X28370Y-33158D02*
Y-9157D01*
X50370D02*
X54370D01*
X40370D02*
X48370D01*
X30370D02*
X38370D01*
X24370D02*
X28370D01*
X54370D02*
Y-1158D01*
X24370Y-9157D02*
Y-1158D01*
X52370D02*
X54370D01*
X24370D02*
X26370D01*
X52370D02*
Y843D01*
X26370Y-1158D02*
Y843D01*
X50370D02*
X52370D01*
X26370D02*
X28370D01*
X23740Y14842D02*
X55000D01*
X23740Y4843D02*
Y14842D01*
X55000Y4843D02*
Y14842D01*
X23740Y4843D02*
X55000D01*
X37402Y9843D02*
X41339D01*
X39370Y7874D02*
Y11811D01*
D11*
X27047Y66811D02*
X46456D01*
X27047Y51299D02*
X46456D01*
Y66811D01*
X27047Y51299D02*
Y66811D01*
D23*
X28484Y32185D02*
X37146D01*
X28484Y26870D02*
X37146D01*
X28484D02*
Y32185D01*
X37146Y26870D02*
Y32185D01*
M02*
